<svg width="368" height="377" viewBox="0 0 368 377" fill="none" xmlns="http://www.w3.org/2000/svg">
<path d="M219.97 283V120L28.9705 311H191.97" stroke="white" stroke-width="24"/>
<path d="M208.47 299.5H284.763L208.47 375.793V299.5Z" fill="white" stroke="white"/>
<path d="M355.47 103V271H259.97V103H355.47Z" stroke="white" stroke-width="24"/>
<path d="M272.538 45.528H263.928L263.887 78H255.359L255.4 45.528H248.881V37H255.4L255.359 24.126H263.887L263.928 37H272.538V45.528ZM316.779 52.293V78H308.251V54.384C308.251 52.5527 307.8 50.8853 306.898 49.382C306.023 47.8787 304.834 46.6897 303.331 45.815C301.855 44.913 300.187 44.462 298.329 44.462C296.525 44.462 294.871 44.913 293.368 45.815C291.864 46.6897 290.662 47.8787 289.76 49.382C288.858 50.8853 288.407 52.5527 288.407 54.384V78H279.879V16.5H288.407V41.346C289.828 39.6513 291.577 38.312 293.655 37.328C295.732 36.344 297.973 35.852 300.379 35.852C303.413 35.852 306.173 36.59 308.661 38.066C311.148 39.542 313.116 41.5237 314.565 44.011C316.041 46.4983 316.779 49.259 316.779 52.293ZM342.202 79.066C338.43 79.066 334.986 78.0957 331.87 76.155C328.781 74.2143 326.308 71.6177 324.449 68.365C322.618 65.085 321.702 61.4633 321.702 57.5C321.702 54.4933 322.235 51.6917 323.301 49.095C324.367 46.471 325.829 44.175 327.688 42.207C329.574 40.2117 331.761 38.6537 334.248 37.533C336.735 36.4123 339.387 35.852 342.202 35.852C345.345 35.852 348.229 36.508 350.853 37.82C353.477 39.1047 355.718 40.895 357.577 43.191C359.436 45.4597 360.802 48.0837 361.677 51.063C362.552 54.015 362.811 57.1583 362.456 60.493H330.845C331.2 62.379 331.884 64.0873 332.895 65.618C333.934 67.1213 335.246 68.3103 336.831 69.185C338.444 70.0597 340.234 70.5107 342.202 70.538C344.279 70.538 346.165 70.0187 347.86 68.98C349.582 67.9413 350.99 66.5063 352.083 64.675L360.734 66.684C359.094 70.3193 356.62 73.2987 353.313 75.622C350.006 77.918 346.302 79.066 342.202 79.066ZM330.558 53.974H353.846C353.573 52.006 352.876 50.2293 351.755 48.644C350.662 47.0313 349.281 45.7603 347.614 44.831C345.974 43.8743 344.17 43.396 342.202 43.396C340.261 43.396 338.457 43.8607 336.79 44.79C335.15 45.7193 333.783 46.9903 332.69 48.603C331.624 50.1883 330.913 51.9787 330.558 53.974Z" fill="white"/>
</svg>
